<?xml version="1.0" encoding="UTF-8" standalone="no"?>
<!DOCTYPE svg PUBLIC "-//W3C//DTD SVG 1.1//EN"
 "http://www.w3.org/Graphics/SVG/1.1/DTD/svg11.dtd">
<!-- Generated by graphviz version 2.43.0 (0)
 -->
<!-- Title: finite_automata Pages: 1 -->
<svg width="194pt" height="94pt"
 viewBox="0.00 0.00 193.59 94.50" xmlns="http://www.w3.org/2000/svg" xmlns:xlink="http://www.w3.org/1999/xlink">
<g id="graph0" class="graph" transform="scale(1 1) rotate(0) translate(4 90.5)">
<title>finite_automata</title>
<polygon fill="white" stroke="transparent" points="-4,4 -4,-90.5 189.59,-90.5 189.59,4 -4,4"/>
<!-- init -->
<g id="node1" class="node">
<title>init</title>
<ellipse fill="black" stroke="black" cx="1.8" cy="-26.75" rx="1.8" ry="1.8"/>
</g>
<!-- q0 -->
<g id="node3" class="node">
<title>q0</title>
<ellipse fill="none" stroke="black" cx="63.35" cy="-26.75" rx="23" ry="23"/>
<text text-anchor="middle" x="63.35" y="-23.05" font-family="Times,serif" font-size="14.00">q0</text>
</g>
<!-- init&#45;&gt;q0 -->
<g id="edge1" class="edge">
<title>init&#45;&gt;q0</title>
<path fill="none" stroke="black" d="M3.83,-26.75C7.23,-26.75 18.48,-26.75 30.22,-26.75"/>
<polygon fill="black" stroke="black" points="30.48,-30.25 40.48,-26.75 30.48,-23.25 30.48,-30.25"/>
</g>
<!-- q1 -->
<g id="node2" class="node">
<title>q1</title>
<ellipse fill="none" stroke="black" cx="158.84" cy="-26.75" rx="22.96" ry="22.96"/>
<ellipse fill="none" stroke="black" cx="158.84" cy="-26.75" rx="27" ry="27"/>
<text text-anchor="middle" x="158.84" y="-23.05" font-family="Times,serif" font-size="14.00">q1</text>
</g>
<!-- q1&#45;&gt;q1 -->
<g id="edge4" class="edge">
<title>q1&#45;&gt;q1</title>
<path fill="none" stroke="black" d="M149.92,-52.05C149.31,-62.57 152.28,-71.5 158.84,-71.5 163.15,-71.5 165.91,-67.65 167.13,-62.04"/>
<polygon fill="black" stroke="black" points="170.62,-62.25 167.76,-52.05 163.63,-61.81 170.62,-62.25"/>
<text text-anchor="middle" x="158.84" y="-75.3" font-family="Times,serif" font-size="14.00">a</text>
</g>
<!-- q1&#45;&gt;q0 -->
<g id="edge5" class="edge">
<title>q1&#45;&gt;q0</title>
<path fill="none" stroke="black" d="M135.7,-12.91C126.13,-8.51 114.71,-5.34 104.1,-7.75 100.37,-8.59 96.59,-9.83 92.91,-11.28"/>
<polygon fill="black" stroke="black" points="91.24,-8.19 83.53,-15.46 94.09,-14.58 91.24,-8.19"/>
<text text-anchor="middle" x="109.1" y="-11.55" font-family="Times,serif" font-size="14.00">b</text>
</g>
<!-- q0&#45;&gt;q1 -->
<g id="edge3" class="edge">
<title>q0&#45;&gt;q1</title>
<path fill="none" stroke="black" d="M86.51,-26.75C97.03,-26.75 109.88,-26.75 121.76,-26.75"/>
<polygon fill="black" stroke="black" points="121.87,-30.25 131.87,-26.75 121.87,-23.25 121.87,-30.25"/>
<text text-anchor="middle" x="109.1" y="-30.55" font-family="Times,serif" font-size="14.00">b</text>
</g>
<!-- q0&#45;&gt;q0 -->
<g id="edge2" class="edge">
<title>q0&#45;&gt;q0</title>
<path fill="none" stroke="black" d="M56,-48.55C55.19,-58.66 57.64,-67.5 63.35,-67.5 67,-67.5 69.32,-63.87 70.3,-58.6"/>
<polygon fill="black" stroke="black" points="73.8,-58.68 70.7,-48.55 66.81,-58.4 73.8,-58.68"/>
<text text-anchor="middle" x="63.35" y="-71.3" font-family="Times,serif" font-size="14.00">a</text>
</g>
</g>
</svg>
