<?xml version="1.0" encoding="UTF-8" standalone="no"?>
<!DOCTYPE svg PUBLIC "-//W3C//DTD SVG 1.1//EN"
 "http://www.w3.org/Graphics/SVG/1.1/DTD/svg11.dtd">
<!-- Generated by graphviz version 2.43.0 (0)
 -->
<!-- Title: finite_automata Pages: 1 -->
<svg width="476pt" height="183pt"
 viewBox="0.00 0.00 476.08 183.50" xmlns="http://www.w3.org/2000/svg" xmlns:xlink="http://www.w3.org/1999/xlink">
<g id="graph0" class="graph" transform="scale(1 1) rotate(0) translate(4 179.5)">
<title>finite_automata</title>
<polygon fill="white" stroke="transparent" points="-4,4 -4,-179.5 472.08,-179.5 472.08,4 -4,4"/>
<!-- init -->
<g id="node1" class="node">
<title>init</title>
<ellipse fill="black" stroke="black" cx="1.8" cy="-22.75" rx="1.8" ry="1.8"/>
</g>
<!-- q0 -->
<g id="node4" class="node">
<title>q0</title>
<ellipse fill="none" stroke="black" cx="63.35" cy="-22.75" rx="23" ry="23"/>
<text text-anchor="middle" x="63.35" y="-19.05" font-family="Times,serif" font-size="14.00">q0</text>
</g>
<!-- init&#45;&gt;q0 -->
<g id="edge1" class="edge">
<title>init&#45;&gt;q0</title>
<path fill="none" stroke="black" d="M3.83,-22.75C7.23,-22.75 18.48,-22.75 30.22,-22.75"/>
<polygon fill="black" stroke="black" points="30.48,-26.25 40.48,-22.75 30.48,-19.25 30.48,-26.25"/>
</g>
<!-- q3 -->
<g id="node2" class="node">
<title>q3</title>
<ellipse fill="none" stroke="black" cx="250.34" cy="-115.75" rx="22.96" ry="22.96"/>
<ellipse fill="none" stroke="black" cx="250.34" cy="-115.75" rx="27" ry="27"/>
<text text-anchor="middle" x="250.34" y="-112.05" font-family="Times,serif" font-size="14.00">q3</text>
</g>
<!-- q3&#45;&gt;q3 -->
<g id="edge8" class="edge">
<title>q3&#45;&gt;q3</title>
<path fill="none" stroke="black" d="M241.42,-141.05C240.8,-151.57 243.78,-160.5 250.34,-160.5 254.65,-160.5 257.41,-156.65 258.62,-151.04"/>
<polygon fill="black" stroke="black" points="262.12,-151.25 259.26,-141.05 255.13,-150.81 262.12,-151.25"/>
<text text-anchor="middle" x="250.34" y="-164.3" font-family="Times,serif" font-size="14.00">0</text>
</g>
<!-- q4 -->
<g id="node3" class="node">
<title>q4</title>
<ellipse fill="none" stroke="black" cx="349.84" cy="-99.75" rx="22.96" ry="22.96"/>
<ellipse fill="none" stroke="black" cx="349.84" cy="-99.75" rx="27" ry="27"/>
<text text-anchor="middle" x="349.84" y="-96.05" font-family="Times,serif" font-size="14.00">q4</text>
</g>
<!-- q3&#45;&gt;q4 -->
<g id="edge9" class="edge">
<title>q3&#45;&gt;q4</title>
<path fill="none" stroke="black" d="M276.96,-111.54C288.04,-109.73 301.2,-107.57 313.21,-105.59"/>
<polygon fill="black" stroke="black" points="314.09,-109 323.39,-103.92 312.96,-102.09 314.09,-109"/>
<text text-anchor="middle" x="300.09" y="-111.55" font-family="Times,serif" font-size="14.00">1</text>
</g>
<!-- q4&#45;&gt;q3 -->
<g id="edge10" class="edge">
<title>q4&#45;&gt;q3</title>
<path fill="none" stroke="black" d="M325.12,-89.28C315.7,-86.47 304.81,-84.9 295.09,-87.75 290.13,-89.2 285.2,-91.4 280.54,-93.95"/>
<polygon fill="black" stroke="black" points="278.68,-90.98 271.95,-99.16 282.32,-96.96 278.68,-90.98"/>
<text text-anchor="middle" x="300.09" y="-91.55" font-family="Times,serif" font-size="14.00">0</text>
</g>
<!-- q5 -->
<g id="node7" class="node">
<title>q5</title>
<ellipse fill="none" stroke="black" cx="445.33" cy="-55.75" rx="23" ry="23"/>
<text text-anchor="middle" x="445.33" y="-52.05" font-family="Times,serif" font-size="14.00">q5</text>
</g>
<!-- q4&#45;&gt;q5 -->
<g id="edge11" class="edge">
<title>q4&#45;&gt;q5</title>
<path fill="none" stroke="black" d="M374.43,-88.64C386.88,-82.79 402.26,-75.55 415.42,-69.35"/>
<polygon fill="black" stroke="black" points="416.98,-72.49 424.54,-65.06 414,-66.15 416.98,-72.49"/>
<text text-anchor="middle" x="399.58" y="-82.55" font-family="Times,serif" font-size="14.00">1</text>
</g>
<!-- q1 -->
<g id="node5" class="node">
<title>q1</title>
<ellipse fill="none" stroke="black" cx="154.84" cy="-69.75" rx="23" ry="23"/>
<text text-anchor="middle" x="154.84" y="-66.05" font-family="Times,serif" font-size="14.00">q1</text>
</g>
<!-- q0&#45;&gt;q1 -->
<g id="edge2" class="edge">
<title>q0&#45;&gt;q1</title>
<path fill="none" stroke="black" d="M83.77,-32.95C95.96,-39.35 111.9,-47.72 125.5,-54.86"/>
<polygon fill="black" stroke="black" points="123.98,-58.02 134.46,-59.57 127.24,-51.82 123.98,-58.02"/>
<text text-anchor="middle" x="109.1" y="-51.55" font-family="Times,serif" font-size="14.00">0</text>
</g>
<!-- q2 -->
<g id="node6" class="node">
<title>q2</title>
<ellipse fill="none" stroke="black" cx="250.34" cy="-39.75" rx="23" ry="23"/>
<text text-anchor="middle" x="250.34" y="-36.05" font-family="Times,serif" font-size="14.00">q2</text>
</g>
<!-- q0&#45;&gt;q2 -->
<g id="edge3" class="edge">
<title>q0&#45;&gt;q2</title>
<path fill="none" stroke="black" d="M86.14,-21.25C109.01,-20.03 145.96,-19.05 177.59,-22.75 191.1,-24.33 205.76,-27.52 218.28,-30.72"/>
<polygon fill="black" stroke="black" points="217.66,-34.18 228.22,-33.38 219.46,-27.42 217.66,-34.18"/>
<text text-anchor="middle" x="154.84" y="-26.55" font-family="Times,serif" font-size="14.00">1</text>
</g>
<!-- q1&#45;&gt;q3 -->
<g id="edge4" class="edge">
<title>q1&#45;&gt;q3</title>
<path fill="none" stroke="black" d="M175.67,-79.5C187.61,-85.37 203.09,-92.99 216.78,-99.73"/>
<polygon fill="black" stroke="black" points="215.39,-102.94 225.91,-104.22 218.48,-96.66 215.39,-102.94"/>
<text text-anchor="middle" x="200.59" y="-97.55" font-family="Times,serif" font-size="14.00">0</text>
</g>
<!-- q1&#45;&gt;q2 -->
<g id="edge5" class="edge">
<title>q1&#45;&gt;q2</title>
<path fill="none" stroke="black" d="M177.25,-64.11C186.08,-61.68 196.37,-58.73 205.59,-55.75 210.04,-54.31 214.71,-52.71 219.28,-51.08"/>
<polygon fill="black" stroke="black" points="220.77,-54.27 228.98,-47.56 218.38,-47.69 220.77,-54.27"/>
<text text-anchor="middle" x="200.59" y="-61.55" font-family="Times,serif" font-size="14.00">1</text>
</g>
<!-- q2&#45;&gt;q1 -->
<g id="edge6" class="edge">
<title>q2&#45;&gt;q1</title>
<path fill="none" stroke="black" d="M228.11,-34.77C217.99,-33.34 205.88,-33.04 195.59,-36.75 189.5,-38.95 183.69,-42.53 178.47,-46.54"/>
<polygon fill="black" stroke="black" points="176.17,-43.91 170.83,-53.06 180.71,-49.23 176.17,-43.91"/>
<text text-anchor="middle" x="200.59" y="-40.55" font-family="Times,serif" font-size="14.00">0</text>
</g>
<!-- q2&#45;&gt;q5 -->
<g id="edge7" class="edge">
<title>q2&#45;&gt;q5</title>
<path fill="none" stroke="black" d="M273.08,-41.1C298.07,-42.71 340.32,-45.57 376.58,-48.75 388.28,-49.77 401.09,-51.05 412.39,-52.24"/>
<polygon fill="black" stroke="black" points="412.37,-55.76 422.69,-53.34 413.11,-48.8 412.37,-55.76"/>
<text text-anchor="middle" x="349.84" y="-52.55" font-family="Times,serif" font-size="14.00">1</text>
</g>
<!-- q5&#45;&gt;q5 -->
<g id="edge12" class="edge">
<title>q5&#45;&gt;q5</title>
<path fill="none" stroke="black" d="M437.28,-77.13C436.29,-87.42 438.97,-96.5 445.33,-96.5 449.41,-96.5 451.97,-92.77 453.03,-87.39"/>
<polygon fill="black" stroke="black" points="456.53,-87.25 453.38,-77.13 449.54,-87 456.53,-87.25"/>
<text text-anchor="middle" x="445.33" y="-100.3" font-family="Times,serif" font-size="14.00">0,1</text>
</g>
</g>
</svg>
