<?xml version="1.0" encoding="UTF-8" standalone="no"?>
<!DOCTYPE svg PUBLIC "-//W3C//DTD SVG 1.1//EN"
 "http://www.w3.org/Graphics/SVG/1.1/DTD/svg11.dtd">
<!-- Generated by graphviz version 2.43.0 (0)
 -->
<!-- Title: ParseTree Pages: 1 -->
<svg width="458pt" height="836pt"
 viewBox="0.00 0.00 458.00 836.00" xmlns="http://www.w3.org/2000/svg" xmlns:xlink="http://www.w3.org/1999/xlink">
<g id="graph0" class="graph" transform="scale(1 1) rotate(0) translate(4 832)">
<title>ParseTree</title>
<polygon fill="white" stroke="transparent" points="-4,4 -4,-832 454,-832 454,4 -4,4"/>
<!-- S -->
<g id="node1" class="node">
<title>S</title>
<text text-anchor="middle" x="63" y="-806.3" font-family="Times,serif" font-size="14.00">S</text>
</g>
<!-- a1 -->
<g id="node2" class="node">
<title>a1</title>
<text text-anchor="middle" x="27" y="-734.3" font-family="Times,serif" font-size="14.00">a</text>
</g>
<!-- S&#45;&gt;a1 -->
<g id="edge1" class="edge">
<title>S&#45;&gt;a1</title>
<path fill="none" stroke="black" d="M54.1,-791.7C48.52,-780.85 41.36,-766.92 35.8,-756.1"/>
</g>
<!-- Q1_1 -->
<g id="node3" class="node">
<title>Q1_1</title>
<text text-anchor="middle" x="99" y="-734.3" font-family="Times,serif" font-size="14.00">Q1</text>
</g>
<!-- S&#45;&gt;Q1_1 -->
<g id="edge2" class="edge">
<title>S&#45;&gt;Q1_1</title>
<path fill="none" stroke="black" d="M71.9,-791.7C77.48,-780.85 84.64,-766.92 90.2,-756.1"/>
</g>
<!-- b1 -->
<g id="node4" class="node">
<title>b1</title>
<text text-anchor="middle" x="63" y="-662.3" font-family="Times,serif" font-size="14.00">b</text>
</g>
<!-- Q1_1&#45;&gt;b1 -->
<g id="edge3" class="edge">
<title>Q1_1&#45;&gt;b1</title>
<path fill="none" stroke="black" d="M90.1,-719.7C84.52,-708.85 77.36,-694.92 71.8,-684.1"/>
</g>
<!-- Q2_1 -->
<g id="node5" class="node">
<title>Q2_1</title>
<text text-anchor="middle" x="135" y="-662.3" font-family="Times,serif" font-size="14.00">Q2</text>
</g>
<!-- Q1_1&#45;&gt;Q2_1 -->
<g id="edge4" class="edge">
<title>Q1_1&#45;&gt;Q2_1</title>
<path fill="none" stroke="black" d="M107.9,-719.7C113.48,-708.85 120.64,-694.92 126.2,-684.1"/>
</g>
<!-- a2 -->
<g id="node6" class="node">
<title>a2</title>
<text text-anchor="middle" x="99" y="-590.3" font-family="Times,serif" font-size="14.00">a</text>
</g>
<!-- Q2_1&#45;&gt;a2 -->
<g id="edge5" class="edge">
<title>Q2_1&#45;&gt;a2</title>
<path fill="none" stroke="black" d="M126.1,-647.7C120.52,-636.85 113.36,-622.92 107.8,-612.1"/>
</g>
<!-- Q1_2 -->
<g id="node7" class="node">
<title>Q1_2</title>
<text text-anchor="middle" x="171" y="-590.3" font-family="Times,serif" font-size="14.00">Q1</text>
</g>
<!-- Q2_1&#45;&gt;Q1_2 -->
<g id="edge6" class="edge">
<title>Q2_1&#45;&gt;Q1_2</title>
<path fill="none" stroke="black" d="M143.9,-647.7C149.48,-636.85 156.64,-622.92 162.2,-612.1"/>
</g>
<!-- b2 -->
<g id="node8" class="node">
<title>b2</title>
<text text-anchor="middle" x="135" y="-518.3" font-family="Times,serif" font-size="14.00">b</text>
</g>
<!-- Q1_2&#45;&gt;b2 -->
<g id="edge7" class="edge">
<title>Q1_2&#45;&gt;b2</title>
<path fill="none" stroke="black" d="M162.1,-575.7C156.52,-564.85 149.36,-550.92 143.8,-540.1"/>
</g>
<!-- Q2_2 -->
<g id="node9" class="node">
<title>Q2_2</title>
<text text-anchor="middle" x="207" y="-518.3" font-family="Times,serif" font-size="14.00">Q2</text>
</g>
<!-- Q1_2&#45;&gt;Q2_2 -->
<g id="edge8" class="edge">
<title>Q1_2&#45;&gt;Q2_2</title>
<path fill="none" stroke="black" d="M179.9,-575.7C185.48,-564.85 192.64,-550.92 198.2,-540.1"/>
</g>
<!-- a3 -->
<g id="node10" class="node">
<title>a3</title>
<text text-anchor="middle" x="171" y="-446.3" font-family="Times,serif" font-size="14.00">a</text>
</g>
<!-- Q2_2&#45;&gt;a3 -->
<g id="edge9" class="edge">
<title>Q2_2&#45;&gt;a3</title>
<path fill="none" stroke="black" d="M198.1,-503.7C192.52,-492.85 185.36,-478.92 179.8,-468.1"/>
</g>
<!-- Q1_3 -->
<g id="node11" class="node">
<title>Q1_3</title>
<text text-anchor="middle" x="243" y="-446.3" font-family="Times,serif" font-size="14.00">Q1</text>
</g>
<!-- Q2_2&#45;&gt;Q1_3 -->
<g id="edge10" class="edge">
<title>Q2_2&#45;&gt;Q1_3</title>
<path fill="none" stroke="black" d="M215.9,-503.7C221.48,-492.85 228.64,-478.92 234.2,-468.1"/>
</g>
<!-- b3 -->
<g id="node12" class="node">
<title>b3</title>
<text text-anchor="middle" x="207" y="-374.3" font-family="Times,serif" font-size="14.00">b</text>
</g>
<!-- Q1_3&#45;&gt;b3 -->
<g id="edge11" class="edge">
<title>Q1_3&#45;&gt;b3</title>
<path fill="none" stroke="black" d="M234.1,-431.7C228.52,-420.85 221.36,-406.92 215.8,-396.1"/>
</g>
<!-- Q2_3 -->
<g id="node13" class="node">
<title>Q2_3</title>
<text text-anchor="middle" x="279" y="-374.3" font-family="Times,serif" font-size="14.00">Q2</text>
</g>
<!-- Q1_3&#45;&gt;Q2_3 -->
<g id="edge12" class="edge">
<title>Q1_3&#45;&gt;Q2_3</title>
<path fill="none" stroke="black" d="M251.9,-431.7C257.48,-420.85 264.64,-406.92 270.2,-396.1"/>
</g>
<!-- a4 -->
<g id="node14" class="node">
<title>a4</title>
<text text-anchor="middle" x="243" y="-302.3" font-family="Times,serif" font-size="14.00">a</text>
</g>
<!-- Q2_3&#45;&gt;a4 -->
<g id="edge13" class="edge">
<title>Q2_3&#45;&gt;a4</title>
<path fill="none" stroke="black" d="M270.1,-359.7C264.52,-348.85 257.36,-334.92 251.8,-324.1"/>
</g>
<!-- Q1_4 -->
<g id="node15" class="node">
<title>Q1_4</title>
<text text-anchor="middle" x="315" y="-302.3" font-family="Times,serif" font-size="14.00">Q1</text>
</g>
<!-- Q2_3&#45;&gt;Q1_4 -->
<g id="edge14" class="edge">
<title>Q2_3&#45;&gt;Q1_4</title>
<path fill="none" stroke="black" d="M287.9,-359.7C293.48,-348.85 300.64,-334.92 306.2,-324.1"/>
</g>
<!-- b4 -->
<g id="node16" class="node">
<title>b4</title>
<text text-anchor="middle" x="279" y="-230.3" font-family="Times,serif" font-size="14.00">b</text>
</g>
<!-- Q1_4&#45;&gt;b4 -->
<g id="edge15" class="edge">
<title>Q1_4&#45;&gt;b4</title>
<path fill="none" stroke="black" d="M306.1,-287.7C300.52,-276.85 293.36,-262.92 287.8,-252.1"/>
</g>
<!-- Q2_4 -->
<g id="node17" class="node">
<title>Q2_4</title>
<text text-anchor="middle" x="351" y="-230.3" font-family="Times,serif" font-size="14.00">Q2</text>
</g>
<!-- Q1_4&#45;&gt;Q2_4 -->
<g id="edge16" class="edge">
<title>Q1_4&#45;&gt;Q2_4</title>
<path fill="none" stroke="black" d="M323.9,-287.7C329.48,-276.85 336.64,-262.92 342.2,-252.1"/>
</g>
<!-- a5 -->
<g id="node18" class="node">
<title>a5</title>
<text text-anchor="middle" x="315" y="-158.3" font-family="Times,serif" font-size="14.00">a</text>
</g>
<!-- Q2_4&#45;&gt;a5 -->
<g id="edge17" class="edge">
<title>Q2_4&#45;&gt;a5</title>
<path fill="none" stroke="black" d="M342.1,-215.7C336.52,-204.85 329.36,-190.92 323.8,-180.1"/>
</g>
<!-- Q1_5 -->
<g id="node19" class="node">
<title>Q1_5</title>
<text text-anchor="middle" x="387" y="-158.3" font-family="Times,serif" font-size="14.00">Q1</text>
</g>
<!-- Q2_4&#45;&gt;Q1_5 -->
<g id="edge18" class="edge">
<title>Q2_4&#45;&gt;Q1_5</title>
<path fill="none" stroke="black" d="M359.9,-215.7C365.48,-204.85 372.64,-190.92 378.2,-180.1"/>
</g>
<!-- b5 -->
<g id="node20" class="node">
<title>b5</title>
<text text-anchor="middle" x="351" y="-86.3" font-family="Times,serif" font-size="14.00">b</text>
</g>
<!-- Q1_5&#45;&gt;b5 -->
<g id="edge19" class="edge">
<title>Q1_5&#45;&gt;b5</title>
<path fill="none" stroke="black" d="M378.1,-143.7C372.52,-132.85 365.36,-118.92 359.8,-108.1"/>
</g>
<!-- Q2_5 -->
<g id="node21" class="node">
<title>Q2_5</title>
<text text-anchor="middle" x="423" y="-86.3" font-family="Times,serif" font-size="14.00">Q2</text>
</g>
<!-- Q1_5&#45;&gt;Q2_5 -->
<g id="edge20" class="edge">
<title>Q1_5&#45;&gt;Q2_5</title>
<path fill="none" stroke="black" d="M395.9,-143.7C401.48,-132.85 408.64,-118.92 414.2,-108.1"/>
</g>
<!-- epsilon -->
<g id="node22" class="node">
<title>epsilon</title>
<text text-anchor="middle" x="423" y="-14.3" font-family="Times,serif" font-size="14.00">ε</text>
</g>
<!-- Q2_5&#45;&gt;epsilon -->
<g id="edge21" class="edge">
<title>Q2_5&#45;&gt;epsilon</title>
<path fill="none" stroke="black" d="M423,-71.7C423,-60.85 423,-46.92 423,-36.1"/>
</g>
</g>
</svg>
