<?xml version="1.0" encoding="UTF-8" standalone="no"?>
<!DOCTYPE svg PUBLIC "-//W3C//DTD SVG 1.1//EN"
 "http://www.w3.org/Graphics/SVG/1.1/DTD/svg11.dtd">
<!-- Generated by graphviz version 2.43.0 (0)
 -->
<!-- Title: finite_automata Pages: 1 -->
<svg width="376pt" height="151pt"
 viewBox="0.00 0.00 375.58 151.50" xmlns="http://www.w3.org/2000/svg" xmlns:xlink="http://www.w3.org/1999/xlink">
<g id="graph0" class="graph" transform="scale(1 1) rotate(0) translate(4 147.5)">
<title>finite_automata</title>
<polygon fill="white" stroke="transparent" points="-4,4 -4,-147.5 371.58,-147.5 371.58,4 -4,4"/>
<!-- init -->
<g id="node1" class="node">
<title>init</title>
<ellipse fill="black" stroke="black" cx="1.8" cy="-87.75" rx="1.8" ry="1.8"/>
</g>
<!-- q0 -->
<g id="node3" class="node">
<title>q0</title>
<ellipse fill="none" stroke="black" cx="63.35" cy="-87.75" rx="23" ry="23"/>
<text text-anchor="middle" x="63.35" y="-84.05" font-family="Times,serif" font-size="14.00">q0</text>
</g>
<!-- init&#45;&gt;q0 -->
<g id="edge1" class="edge">
<title>init&#45;&gt;q0</title>
<path fill="none" stroke="black" d="M3.83,-87.75C7.23,-87.75 18.48,-87.75 30.22,-87.75"/>
<polygon fill="black" stroke="black" points="30.48,-91.25 40.48,-87.75 30.48,-84.25 30.48,-91.25"/>
</g>
<!-- q3 -->
<g id="node2" class="node">
<title>q3</title>
<ellipse fill="none" stroke="black" cx="340.84" cy="-81.75" rx="22.96" ry="22.96"/>
<ellipse fill="none" stroke="black" cx="340.84" cy="-81.75" rx="27" ry="27"/>
<text text-anchor="middle" x="340.84" y="-78.05" font-family="Times,serif" font-size="14.00">q3</text>
</g>
<!-- q3&#45;&gt;q0 -->
<g id="edge9" class="edge">
<title>q3&#45;&gt;q0</title>
<path fill="none" stroke="black" d="M315.34,-89.98C276.28,-102.02 197.49,-121.87 131.1,-110.75 118.57,-108.65 105.24,-104.48 93.82,-100.26"/>
<polygon fill="black" stroke="black" points="94.93,-96.94 84.34,-96.59 92.4,-103.47 94.93,-96.94"/>
<text text-anchor="middle" x="199.59" y="-116.55" font-family="Times,serif" font-size="14.00">b</text>
</g>
<!-- q1 -->
<g id="node4" class="node">
<title>q1</title>
<ellipse fill="none" stroke="black" cx="153.84" cy="-45.75" rx="23" ry="23"/>
<text text-anchor="middle" x="153.84" y="-42.05" font-family="Times,serif" font-size="14.00">q1</text>
</g>
<!-- q3&#45;&gt;q1 -->
<g id="edge8" class="edge">
<title>q3&#45;&gt;q1</title>
<path fill="none" stroke="black" d="M314.33,-77.32C285.28,-72.2 236.42,-63.37 194.59,-54.75 191.89,-54.19 189.09,-53.6 186.29,-52.99"/>
<polygon fill="black" stroke="black" points="186.79,-49.51 176.26,-50.76 185.27,-56.34 186.79,-49.51"/>
<text text-anchor="middle" x="245.34" y="-73.55" font-family="Times,serif" font-size="14.00">a</text>
</g>
<!-- q0&#45;&gt;q0 -->
<g id="edge2" class="edge">
<title>q0&#45;&gt;q0</title>
<path fill="none" stroke="black" d="M56,-109.55C55.19,-119.66 57.64,-128.5 63.35,-128.5 67,-128.5 69.32,-124.87 70.3,-119.6"/>
<polygon fill="black" stroke="black" points="73.8,-119.68 70.7,-109.55 66.81,-119.4 73.8,-119.68"/>
<text text-anchor="middle" x="63.35" y="-132.3" font-family="Times,serif" font-size="14.00">b</text>
</g>
<!-- q0&#45;&gt;q1 -->
<g id="edge3" class="edge">
<title>q0&#45;&gt;q1</title>
<path fill="none" stroke="black" d="M84.43,-78.22C95.97,-72.74 110.68,-65.76 123.49,-59.68"/>
<polygon fill="black" stroke="black" points="125.31,-62.69 132.84,-55.24 122.31,-56.37 125.31,-62.69"/>
<text text-anchor="middle" x="108.6" y="-72.55" font-family="Times,serif" font-size="14.00">a</text>
</g>
<!-- q1&#45;&gt;q1 -->
<g id="edge4" class="edge">
<title>q1&#45;&gt;q1</title>
<path fill="none" stroke="black" d="M145.8,-67.13C144.8,-77.42 147.48,-86.5 153.84,-86.5 157.92,-86.5 160.48,-82.77 161.54,-77.39"/>
<polygon fill="black" stroke="black" points="165.05,-77.25 161.89,-67.13 158.05,-77 165.05,-77.25"/>
<text text-anchor="middle" x="153.84" y="-90.3" font-family="Times,serif" font-size="14.00">a</text>
</g>
<!-- q2 -->
<g id="node5" class="node">
<title>q2</title>
<ellipse fill="none" stroke="black" cx="245.34" cy="-22.75" rx="23" ry="23"/>
<text text-anchor="middle" x="245.34" y="-19.05" font-family="Times,serif" font-size="14.00">q2</text>
</g>
<!-- q1&#45;&gt;q2 -->
<g id="edge5" class="edge">
<title>q1&#45;&gt;q2</title>
<path fill="none" stroke="black" d="M176.05,-40.3C187.12,-37.45 200.87,-33.92 213.12,-30.77"/>
<polygon fill="black" stroke="black" points="214.16,-34.12 222.97,-28.24 212.42,-27.34 214.16,-34.12"/>
<text text-anchor="middle" x="199.59" y="-39.55" font-family="Times,serif" font-size="14.00">b</text>
</g>
<!-- q2&#45;&gt;q3 -->
<g id="edge7" class="edge">
<title>q2&#45;&gt;q3</title>
<path fill="none" stroke="black" d="M265.35,-33.96C274.67,-39.51 286.03,-46.39 296.09,-52.75 300.5,-55.54 305.13,-58.53 309.65,-61.5"/>
<polygon fill="black" stroke="black" points="307.87,-64.52 318.15,-67.11 311.73,-58.68 307.87,-64.52"/>
<text text-anchor="middle" x="291.09" y="-56.55" font-family="Times,serif" font-size="14.00">b</text>
</g>
<!-- q2&#45;&gt;q1 -->
<g id="edge6" class="edge">
<title>q2&#45;&gt;q1</title>
<path fill="none" stroke="black" d="M223.62,-14.98C214.54,-12.7 203.86,-11.56 194.59,-14.75 188.87,-16.72 183.33,-19.89 178.3,-23.46"/>
<polygon fill="black" stroke="black" points="176.05,-20.78 170.38,-29.73 180.39,-26.27 176.05,-20.78"/>
<text text-anchor="middle" x="199.59" y="-18.55" font-family="Times,serif" font-size="14.00">a</text>
</g>
</g>
</svg>
